<?xml version="1.0" encoding="UTF-8" standalone="no"?>
<svg
   xmlns:dc="http://purl.org/dc/elements/1.1/"
   xmlns:cc="http://creativecommons.org/ns#"
   xmlns:rdf="http://www.w3.org/1999/02/22-rdf-syntax-ns#"
   xmlns:svg="http://www.w3.org/2000/svg"
   xmlns="http://www.w3.org/2000/svg"
   version="1.1"
   id="svg2"
   viewBox="0 0 3267.469 412.01542"
   height="412.01541"
   width="3267.469">
  <defs
     id="defs4" />
  <metadata
     id="metadata7">
    <rdf:RDF>
      <cc:Work
         rdf:about="">
        <dc:format>image/svg+xml</dc:format>
        <dc:type
           rdf:resource="http://purl.org/dc/dcmitype/StillImage" />
        <dc:title></dc:title>
      </cc:Work>
    </rdf:RDF>
  </metadata>
  <g
     transform="translate(8.9740965,-597.36639)"
     id="layer1">
    <text
       transform="scale(0.98058168,1.0198029)"
       id="text7563"
       y="654.04779"
       x="5.1925826"
       style="font-style:normal;font-variant:normal;font-weight:normal;font-stretch:normal;font-size:50.52006149px;line-height:125%;font-family:Baskerville;-inkscape-font-specification:Baskerville;text-align:center;letter-spacing:0px;word-spacing:0px;text-anchor:middle;fill:#000000;fill-opacity:1;stroke:none;stroke-width:1px;stroke-linecap:butt;stroke-linejoin:miter;stroke-opacity:1"
       xml:space="preserve"><tspan
         id="tspan7565"
         y="654.04779"
         x="5.1925826" /></text>
    <text
       transform="scale(0.97663996,1.0239188)"
       id="text7581"
       y="771.21918"
       x="1.4190542"
       style="font-style:normal;font-variant:normal;font-weight:normal;font-stretch:normal;font-size:218.30151367px;line-height:125%;font-family:Baskerville;-inkscape-font-specification:'Baskerville, Normal';text-align:start;letter-spacing:0px;word-spacing:0px;writing-mode:lr-tb;text-anchor:start;fill:#000000;fill-opacity:1;stroke:none;stroke-width:1px;stroke-linecap:butt;stroke-linejoin:miter;stroke-opacity:1"
       xml:space="preserve"><tspan
         id="tspan7583"
         y="771.21918"
         x="1.4190542"><tspan
           id="tspan7585"
           style="font-style:normal;font-variant:normal;font-weight:normal;font-stretch:normal;font-size:218.30151367px;line-height:125%;font-family:Baskerville;-inkscape-font-specification:'Baskerville, Normal';text-align:start;writing-mode:lr-tb;text-anchor:start"
           y="771.21918"
           x="1.4190542"><tspan
             id="tspan7623"
             style="font-size:187.11558533px">THE</tspan><tspan
             id="tspan7618"
             style="font-size:249.48744202px"> SPINE SURGERY</tspan><tspan
             id="tspan7621"
             style="font-size:187.11558533px"> LONDON</tspan></tspan></tspan></text>
    <g
       id="g9568">
      <g
         id="g9403"
         style="fill:#034991;fill-opacity:1">
        <path
           id="path4625"
           d="m 943.30102,980.89898 c -39.60835,-3.65922 -109.2829,-12.90587 -154.8325,-20.54813 l -82.81734,-13.89504 176.43701,3.89525 c 110.71394,2.44425 208.81201,0.60523 263.34941,-4.93703 86.4783,-8.78817 111.0353,-13.51287 330.7753,-63.63997 352.0137,-80.30139 641.6084,-80.27419 794.1082,0.0749 28.794,15.17092 50.8019,29.1965 48.9067,31.16797 -1.8953,1.97147 -33.5556,-1.82521 -70.3564,-8.43711 -172.8302,-31.0521 -304.4001,-35.36066 -496.0441,-16.24436 -124.323,12.40113 -192.9632,23.73829 -345.0288,56.98765 -197.8545,43.26116 -298.1564,50.94329 -464.49748,35.57587 z m 540.11338,-29.10551 c 161.5675,-33.82361 268.7781,-45.71934 435.6914,-48.34278 142.5935,-2.24124 146.8629,-1.95271 54.0114,3.65008 -122.3314,7.3816 -203.8995,16.42321 -409.3836,45.37894 -86.5318,12.19363 -162.6877,21.77646 -169.2355,21.29525 -6.5476,-0.48121 33.4646,-10.37288 88.9163,-21.98149 z M 686.29711,939.56813 c 5.19858,-2.16395 11.40989,-1.89779 13.8029,0.59146 2.39299,2.48922 -1.8604,4.25973 -9.45198,3.93449 -8.38936,-0.35944 -10.09583,-2.13454 -4.35092,-4.52591 z m 431.72449,-15.1631 c 8.9581,-1.79183 21.9208,-1.72382 28.8061,0.15088 6.8853,1.87497 -0.4441,3.34103 -16.2874,3.25788 -15.8433,-0.0833 -21.4767,-1.6172 -12.5187,-3.40904 z m 70.1308,-7.41523 c 7.9217,-1.86429 63.6517,-16.74759 123.8446,-33.074 130.66,-35.43956 200.8472,-48.88162 283.0533,-54.20965 66.0906,-4.28348 62.4339,-3.14976 -46.8223,14.51656 -39.6083,6.4045 -123.896,24.66286 -187.3058,40.57411 -63.4101,15.91132 -131.4643,30.42653 -151.2318,32.25608 -19.7675,1.82958 -29.4596,1.80117 -21.538,-0.0632 z"
           style="fill:#034991;fill-opacity:1" />
        <path
           id="path4723"
           d="m 600.08519,926.2748 c 0.23658,-0.9247 12.68135,1.60696 34.48078,5.64558 23.37024,4.32964 51.42109,9.21759 90.67599,14.68066 41.11817,5.72069 84.59811,10.65171 136.29953,15.45678 1.63131,0.15162 3.26612,0.30264 4.90458,0.45311 67.19076,6.17036 147.80513,11.81302 189.68133,15.05613 48.6137,3.76488 78.6674,6.65579 78.585,8.07882 -0.077,1.33213 -30.2684,0.93813 -78.9999,-1.02052 -46.8552,-1.88323 -117.91067,-5.52199 -190.18074,-12.15649 -1.64316,-0.15084 -3.2827,-0.3028 -4.91867,-0.45589 -51.32147,-4.8025 -95.99392,-10.40131 -136.63833,-17.01832 -38.52195,-6.26998 -68.08474,-12.58356 -90.46392,-18.26519 -21.59586,-5.48276 -33.63258,-9.64589 -33.42565,-10.45467 z"
           style="fill:#034991;fill-opacity:1;fill-rule:evenodd;stroke:none;stroke-width:1px;stroke-linecap:butt;stroke-linejoin:miter;stroke-opacity:1" />
        <path
           id="path4785"
           d="m 1062.1091,977.43701 c 0.05,1.46109 -12.8572,3.26096 -35.529,4.00289 -23.5159,0.76954 -54.07607,0.30305 -92.92008,-2.20226 -32.9032,-2.11598 -68.59507,-5.50801 -107.45053,-10.34933 -8.77674,-1.09357 -17.42211,-2.22449 -25.9091,-3.38057 0,0 -2e-5,0 -2e-5,0 -44.73571,-6.09223 -85.55291,-12.98459 -118.07537,-19.13505 0,0 -2e-5,0 -2e-5,0 -51.44955,-9.72868 -83.49849,-17.77229 -82.60812,-19.97272 1.04276,-2.57708 34.92715,1.22126 87.25106,8.12345 0,0 3e-5,0 3e-5,0 30.89065,4.07554 76.16981,10.29741 118.3706,15.7165 0,0 2e-5,0 2e-5,0 8.42172,1.08117 16.98747,2.1678 25.66125,3.24845 39.02888,4.86256 72.73806,8.66398 105.51865,11.91788 40.68996,4.03019 64.89043,5.85453 90.57263,7.7724 22.1004,1.6504 35.0637,2.68836 35.118,4.25836 z"
           style="fill:#034991;fill-opacity:1;fill-rule:evenodd;stroke:none;stroke-width:1px;stroke-linecap:butt;stroke-linejoin:miter;stroke-opacity:1" />
        <path
           id="path4798"
           d="m 1104.7651,949.18126 c 0.073,0.87527 -11.1399,2.82493 -30.8768,4.62473 -20.6177,1.88011 -47.0819,3.29736 -81.74893,3.83025 -34.37346,0.52981 -72.25928,0.076 -114.71893,-1.52337 -3.21092,-0.12095 -6.40609,-0.24685 -9.58405,-0.37727 0,0 -1e-5,0 -1e-5,0 -121.15248,-4.97106 -217.25843,-16.50429 -217.04085,-19.00153 0.24895,-2.85726 96.6615,4.28411 217.44132,9.0183 0,0 2e-5,0 2e-5,0 3.17029,0.12424 6.35748,0.24684 9.55993,0.36744 42.97388,1.61824 79.4486,2.51928 114.32032,2.87876 36.23858,0.37186 59.19888,0.12169 81.50108,-0.23379 19.7205,-0.31433 31.0672,-0.54289 31.1469,0.41648 z"
           style="fill:#034991;fill-opacity:1;fill-rule:evenodd;stroke:none;stroke-width:1px;stroke-linecap:butt;stroke-linejoin:miter;stroke-opacity:1" />
        <path
           id="path4822"
           d="m 974.5181,952.0505 c 0.0358,1.303 -21.46419,3.416 -56.34816,4.23238 -35.64787,0.83425 -82.31967,0.22513 -136.18475,-3.63817 -53.63708,-3.84696 -100.38353,-9.91561 -135.34894,-15.63616 -34.43558,-5.63386 -55.46013,-10.57919 -55.24931,-11.87108 0.23354,-1.43112 21.65108,1.04251 56.20952,4.86552 35.82259,3.96286 81.01715,8.78681 135.10423,12.66722 54.51887,3.9114 99.0468,5.50203 135.48722,6.54373 34.73526,0.99296 56.29023,1.38135 56.33019,2.83656 z"
           style="fill:#034991;fill-opacity:1;fill-rule:evenodd;stroke:none;stroke-width:1px;stroke-linecap:butt;stroke-linejoin:miter;stroke-opacity:1" />
      </g>
      <g
         id="g9383"
         style="fill:#037bc6;fill-opacity:1">
        <g
           id="g9355"
           style="fill:#037bc6;fill-opacity:1">
          <g
             id="g9345"
             style="fill:#037bc6;fill-opacity:1">
            <path
               id="path4709"
               d="m 1025.2348,933.3293 c -0.1017,-1.45458 22.3211,-3.96066 58.3577,-8.8017 39.8879,-5.35841 81.8811,-11.6527 140.3645,-21.93657 5.8484,-1.0284 11.6377,-2.05703 17.3547,-3.08091 33.0607,-5.92274 72.5568,-13.36333 97.4523,-17.94418 50.3074,-9.25692 83.2899,-14.56172 83.6479,-12.72411 0.2839,1.45735 -32.0813,9.67045 -82.0323,20.70578 -27.3967,6.05276 -61.4657,13.1865 -97.29,19.76461 -5.7289,1.05225 -11.5327,2.09703 -17.4001,3.12916 -56.5652,9.95038 -103.1904,15.90693 -141.3305,19.11294 -36.4127,3.0608 -59.0335,3.07281 -59.1242,1.77498 z"
               style="fill:#037bc6;fill-opacity:1;fill-rule:evenodd;stroke:none;stroke-width:1px;stroke-linecap:butt;stroke-linejoin:miter;stroke-opacity:1" />
            <path
               id="path4773"
               d="m 962.14101,931.34873 c 0.0568,-1.13963 21.18681,-0.46857 57.62689,-1.19769 36.6393,-0.7331 87.9668,-2.96768 148.9778,-10.9947 51.3343,-6.75014 103.8994,-16.80485 164.0337,-30.29522 4.7036,-1.05519 9.3864,-2.11605 14.0433,-3.17963 68.5427,-15.65927 113.5526,-27.03189 170.9943,-38.26073 55.5978,-10.86973 99.6801,-16.45643 133.1521,-19.28668 32.4479,-2.74365 51.1228,-2.61028 51.1717,-1.8132 0.064,1.03645 -18.494,2.62424 -50.633,6.82402 -33.5742,4.38733 -76.4175,10.96938 -131.9695,22.73072 -62.6607,13.26775 -96.1895,22.49552 -170.4852,39.54649 -4.669,1.0719 -9.3651,2.13875 -14.0841,3.19775 -60.1296,13.49379 -113.5174,23.32437 -165.1153,29.41762 -61.5303,7.26175 -113.3403,8.25917 -150.092,7.44165 -36.6125,-0.81443 -57.66125,-3.31616 -57.62069,-4.1304 z"
               style="fill:#037bc6;fill-opacity:1;fill-rule:evenodd;stroke:none;stroke-width:1px;stroke-linecap:butt;stroke-linejoin:miter;stroke-opacity:1" />
            <path
               id="path4802"
               d="m 1195.245,908.66346 c -0.1943,-0.88834 11.7176,-4.31054 32.634,-9.86601 17.2173,-4.57297 54.5446,-14.27607 86.8572,-22.29745 36.9806,-9.18089 83.3533,-20.2421 130.6972,-29.59845 0.851,-0.16821 1.7032,-0.33606 2.5564,-0.50353 48.5392,-9.52656 91.2499,-15.9482 131.0763,-19.67793 39.1388,-3.66893 69.6472,-4.15997 92.9778,-3.28306 22.5043,0.84586 35.266,2.83087 35.2162,3.64659 -0.062,1.01216 -12.9131,0.74633 -35.24,1.37972 -23.6003,0.66951 -52.8792,2.26102 -92.0542,6.82291 -39.74,4.63146 -81.414,11.38372 -130.0505,20.92489 -0.8495,0.16664 -1.698,0.33351 -2.5454,0.50059 -46.2927,9.1287 -94.3481,19.96697 -130.6806,28.07539 -38.4217,8.57534 -64.193,14.25368 -87.7028,18.82976 -21.2744,4.14097 -33.5516,5.91514 -33.7416,5.04658 z"
               style="fill:#037bc6;fill-opacity:1;fill-rule:evenodd;stroke:none;stroke-width:1px;stroke-linecap:butt;stroke-linejoin:miter;stroke-opacity:1" />
            <path
               id="path4806"
               d="m 956.29237,931.29938 c 0.10795,-1.49819 17.10208,-1.04627 44.37323,-2.09412 29.3032,-1.12592 62.8669,-3.72901 106.1542,-10.00033 1.3829,-0.20035 2.7611,-0.40231 4.1343,-0.60572 0,0 0,0 0,0 32.3428,-4.79482 84.3433,-14.23945 102.7619,-17.29366 26.3241,-4.36511 42.6856,-6.32633 42.9495,-4.95929 0.2503,1.29694 -15.6251,5.67374 -41.5757,11.80238 -24.3386,5.74792 -63.6529,14.47488 -102.6598,20.33727 0,0 0,0 0,0 -1.3862,0.20849 -2.7776,0.41426 -4.1743,0.61714 -42.9524,6.23945 -78.6868,7.96311 -107.5532,7.16703 -27.64158,-0.76231 -44.50024,-3.72005 -44.41013,-4.9707 z"
               style="fill:#037bc6;fill-opacity:1;fill-rule:evenodd;stroke:none;stroke-width:1px;stroke-linecap:butt;stroke-linejoin:miter;stroke-opacity:1" />
          </g>
          <path
             style="fill:#037bc6;fill-opacity:1;fill-rule:evenodd;stroke:none;stroke-width:1px;stroke-linecap:butt;stroke-linejoin:miter;stroke-opacity:1"
             d="m 1281.6451,891.61199 c -0.4919,-2.71581 75.2434,-18.71031 169.052,-35.70202 93.6155,-16.95674 170.0273,-28.53023 170.8302,-25.87871 0,0 0,0 0,0 0,0.0209 0,0.0167 0,0.0167 0,0 -6e-4,-0.004 0,0.0168 0,0 0,0 0,0 0.1781,2.7647 -75.4385,18.72834 -169.054,35.68508 -93.8086,16.9917 -170.3424,28.57794 -170.8343,25.86213 z"
             id="path9351" />
        </g>
        <path
           id="path9379"
           d="m 1447.7486,857.70113 c -0.5343,-2.70779 20.0209,-9.04672 45.8821,-14.14938 13.6281,-2.68893 26.0234,-4.50063 34.7791,-5.21669 l 0,0 c 5.0463,-0.41271 8.8836,-0.46146 11.051,-0.10444 l 0,0 c 0.7394,0.1218 1.2844,0.29083 1.6168,0.50875 l 0,0 c 0.1195,0.0783 0.2115,0.16299 0.2752,0.25405 l 0,0 0,0 0,0 c 0.05,0.17062 0.07,0.20258 0.08,0.21353 0.01,0.008 0.01,0.007 0.012,0.007 0,0 0,0 0,0 8e-4,-9e-5 6e-4,-6e-5 6e-4,-6e-5 0,0 2e-4,-4e-5 -6e-4,1.8e-4 0,0 0,0 0,0 0,6.2e-4 -0.01,10e-4 -0.01,0.011 -0.01,0.014 -0.012,0.0514 0.01,0.22803 l 0,0 0,0 0,0 c -0.024,0.10842 -0.077,0.22167 -0.158,0.33953 l 0,0 c -0.2247,0.32783 -0.6647,0.69122 -1.3024,1.08475 l 0,0 c -1.8693,1.15349 -5.4376,2.56591 -10.2625,4.1009 l 0,0 c -8.3714,2.66327 -20.526,5.69551 -34.154,8.38444 -25.8612,5.10266 -47.2836,7.04632 -47.8179,4.33853 z"
           style="fill:#037bc6;fill-opacity:1;fill-rule:evenodd;stroke:none;stroke-width:1px;stroke-linecap:butt;stroke-linejoin:miter;stroke-opacity:1" />
      </g>
      <g
         id="g9502">
        <g
           transform="matrix(0.86468692,0,0,1.0532805,206.70038,-54.367624)"
           style="fill:#037bc6;fill-opacity:1"
           id="g9393">
          <g
             id="g9337"
             style="fill:#037bc6;fill-opacity:1">
            <path
               id="path4663"
               d="m 1316.996,988.55788 c -0.2845,-1.25697 33.9158,-10.60096 89.843,-23.03197 56.7939,-12.62367 132.6906,-27.6586 219.9532,-41.04521 2.1887,-0.33576 4.3724,-0.66864 6.5511,-0.99864 61.4218,-9.30412 115.2435,-15.69866 164.1492,-19.80728 44.7029,-3.7579 78.3105,-5.0917 104.9266,-5.1041 25.3201,-0.0118 39.7051,1.18746 39.6982,1.99651 -0.01,0.94953 -14.3967,1.40496 -39.5584,2.84978 -27.4921,1.57864 -58.7873,3.85819 -104.278,8.6174 -49.1607,5.14599 -101.6492,11.93325 -163.4371,21.33231 -2.1734,0.33062 -4.3518,0.66341 -6.5353,0.99838 -87.8451,13.47573 -162.1745,27.13078 -220.0447,38.08598 -56.1979,10.63865 -90.9431,17.54126 -91.2678,16.10684 z"
               style="fill:#037bc6;fill-opacity:1;fill-rule:evenodd;stroke:none;stroke-width:1px;stroke-linecap:butt;stroke-linejoin:miter;stroke-opacity:1" />
            <path
               id="path4689"
               d="m 1710.9772,926.26453 c -0.2055,-0.80109 9.1822,-4.30285 26.1938,-8.54434 17.8177,-4.44246 40.7968,-8.90894 71.4429,-12.99847 33.4403,-4.46677 70.9449,-7.73094 113.5016,-9.38309 0.1404,-0.005 0.2809,-0.0109 0.4214,-0.0163 42.1362,-1.62523 80.4022,-1.31179 113.719,0.0777 60.4155,2.51719 100.1238,8.71398 99.9247,10.55724 -0.183,1.69444 -40.1031,-1.34407 -100.1537,-2.08536 -33.3893,-0.41069 -70.9957,-0.18088 -113.1046,1.44304 -0.1397,0.005 -0.2794,0.0108 -0.419,0.0162 -42.6485,1.6543 -79.2468,4.30417 -112.8929,7.79083 -31.3459,3.25273 -52.6779,6.34107 -71.4519,9.39608 -17.1542,2.79145 -26.9447,4.66863 -27.1813,3.74653 z"
               style="fill:#037bc6;fill-opacity:1;fill-rule:evenodd;stroke:none;stroke-width:1px;stroke-linecap:butt;stroke-linejoin:miter;stroke-opacity:1" />
            <path
               id="path4830"
               d="m 2133.6605,907.3184 c -0.017,1.02471 -12.9489,1.60929 -35.1868,2.50319 -27.3751,1.10039 -48.6696,1.95068 -91.148,4.16795 -31.879,1.66479 -59.4266,3.2818 -96.7035,5.45072 -11.1358,0.64793 -21.909,1.27176 -32.6175,1.87781 -45.2105,2.55923 -79.4423,4.31449 -113.2307,5.06227 -17.8268,0.39487 -31.962,0.40112 -44.5481,0.006 -21.1411,-0.66079 -33.2085,-2.56472 -33.1135,-3.64419 0.072,-0.82064 12.1914,-0.7413 33.0888,-1.59519 13.3114,-0.54702 25.7039,-1.20367 44.2594,-2.33162 65.7793,-3.99989 35.5942,-2.4856 112.9526,-7.37303 10.6291,-0.67167 21.5607,-1.34111 32.6281,-1.98505 35.2482,-2.05086 66.9933,-3.55593 96.9117,-4.47164 38.481,-1.17859 68.155,-1.24157 91.4925,-0.55052 22.3226,0.66101 35.2311,1.9256 35.215,2.88355 z"
               style="fill:#037bc6;fill-opacity:1;fill-rule:evenodd;stroke:none;stroke-width:1px;stroke-linecap:butt;stroke-linejoin:miter;stroke-opacity:1" />
            <g
               id="g9321"
               style="fill:#037bc6;fill-opacity:1">
              <path
                 style="fill:#037bc6;fill-opacity:1;fill-rule:evenodd;stroke:none;stroke-width:1px;stroke-linecap:butt;stroke-linejoin:miter;stroke-opacity:1"
                 d="m 2084.8518,899.24114 c 0.1186,0.8799 -17.7773,4.31795 -49.204,8.68724 -33.774,4.69565 -74.0169,9.25319 -130.151,14.67469 -55.7342,5.38367 -110.4159,9.94726 -178.5903,15.6137 -7.413,0.61615 -14.6972,1.22183 -21.9992,1.83058 -76.2815,6.36014 -130.0143,10.93632 -189.2752,17.19739 -32.1245,3.39421 -57.0545,6.39633 -80.379,9.57646 -41.4868,5.65871 -65.6799,10.53416 -65.9103,9.56137 -0.2654,-1.12015 23.5393,-7.97925 65.0155,-15.28731 22.8476,-4.02677 48.6444,-7.87123 80.3437,-11.87247 56.6721,-7.15374 115.6641,-12.85289 189.3677,-19.1217 7.2829,-0.61951 14.6147,-1.23541 22.0085,-1.84997 48.8604,-4.06116 142.234,-11.35604 178.6537,-14.2872 62.9628,-5.06847 89.6554,-7.36232 130.3348,-11.08113 31.535,-2.88286 49.6561,-4.59885 49.7851,-3.64165 z"
                 id="path4826" />
              <path
                 style="fill:#037bc6;fill-opacity:1;fill-rule:evenodd;stroke:none;stroke-width:1px;stroke-linecap:butt;stroke-linejoin:miter;stroke-opacity:1"
                 d="m 1316.4261,988.55292 c -0.3405,-1.24199 15.154,-7.05057 41.1244,-13.79698 27.3039,-7.09283 60.9881,-13.91913 103.0456,-20.14697 0,0 0,0 0,0 1.473,-0.21824 2.9513,-0.4351 4.4349,-0.65059 40.5997,-5.8969 80.7221,-10.08037 107.0953,-12.4126 27.4779,-2.42992 44.5618,-3.27496 44.7307,-1.92303 0.1732,1.38665 -16.6099,4.71393 -43.8772,8.94166 -33.7063,5.22607 -58.545,8.3213 -106.5113,15.28992 -1.4775,0.21467 -2.9494,0.42922 -4.4165,0.64381 0,0 0,0 0,0 -44.0556,6.44784 -73.2838,11.45122 -102.9766,17.05971 -26.1555,4.94035 -42.2733,8.36623 -42.6493,6.99507 z"
                 id="path4849" />
            </g>
          </g>
          <path
             style="fill:#037bc6;fill-opacity:1;fill-rule:evenodd;stroke:none;stroke-width:1px;stroke-linecap:butt;stroke-linejoin:miter;stroke-opacity:1"
             d="m 1876.6004,903.28709 c 0.3997,2.56312 -124.128,24.67382 -278.1629,48.25298 -83.9752,12.85464 -156.21,22.94654 -208.7109,29.49285 l 0,0 c -30.5265,3.80646 -49.0154,5.80885 -62.0551,6.52878 l 0,0 c -4.0066,0.22107 -6.4147,0.25868 -8.0399,0.0847 l 0,0 c -0.5283,-0.0571 -0.8653,-0.12328 -1.0802,-0.22909 l 0,0 c -0.026,-0.0302 -0.165,-0.15927 -0.1519,-0.14557 l 0,0 0,0 c -0.01,-0.0209 -0.012,-0.0325 -0.015,-0.0379 -0,-0.007 -0,-0.007 -0,-0.007 0,0 -10e-5,-4e-5 9e-4,-0.003 0.01,4.5e-4 0.019,-0.007 0.033,-0.0256 l 0,0 0,0 c 0.046,-0.035 0.048,-0.0442 0.1361,-0.1336 l 0,0 c 0.1561,-0.0822 0.542,-0.22261 1.0054,-0.34917 l 0,0 c 1.0837,-0.30052 4.3453,-1.0085 7.805,-1.67324 l 0,0 c 7.2331,-1.39226 36.6454,-6.49799 61.4118,-10.59047 l 0,0 c 48.2882,-7.98044 128.0997,-20.54214 208.1514,-32.79626 153.9959,-23.57331 279.2253,-41.25902 279.6761,-38.36811 z"
             id="path9363" />
        </g>
        <path
           id="path9479"
           d="m 1578.8728,932.98146 c -0.2181,-2.53024 150.9598,-17.6663 346.7071,-34.8566 l 0,0 c 14.5713,-1.27964 29.3897,-2.57066 44.4109,-3.86871 l 0,0 c 1.934,-0.16713 3.8714,-0.33437 5.8121,-0.50172 l 0,0 c 2e-4,-3e-5 0.7936,-0.0684 0.7938,-0.0684 0,-9.7e-4 10e-5,2e-5 10e-5,2e-5 0.1271,1.65995 0.2542,3.31997 0.3813,4.98004 l 0,0 0.02,-0.001 c 0.01,-5e-4 -0.7355,0.0365 -0.7357,0.0365 -59.8949,2.99289 -112.5799,5.61362 -164.0991,7.75907 -137.5562,18.47347 -233.6524,30.16517 -233.9337,28.1555 -0.2813,-2.01004 95.3939,-17.15863 233.2117,-37.2279 51.7907,0.10305 104.8451,0.63348 165.1464,1.25016 -2e-4,-10e-6 0.7469,0.008 0.7467,0.008 l -0.026,0.003 0,0 c 0.049,1.66681 0.098,3.33356 0.1468,5.00025 0,0 0,9.9e-4 0,9.9e-4 2e-4,-9.9e-4 -0.7941,0.0674 -0.7939,0.0674 l 0,0 c -1.9407,0.16715 -3.8781,0.33385 -5.8122,0.50009 l 0,0 c -15.0218,1.29114 -29.8425,2.55449 -44.418,3.7868 l 0,0 c -195.8021,16.55453 -347.3404,27.5074 -347.5585,24.97716 z"
           style="fill:#037bc6;fill-opacity:1;fill-rule:evenodd;stroke:#037bc6;stroke-width:4.78303957;stroke-linecap:butt;stroke-linejoin:miter;stroke-miterlimit:4;stroke-dasharray:none;stroke-opacity:1" />
      </g>
    </g>
  </g>
</svg>
